<svg xmlns="http://www.w3.org/2000/svg" viewBox="0 0 512 512" width="512" height="512">
  <defs>
    <linearGradient id="bgGrad512" x1="0%" y1="0%" x2="100%" y2="100%">
      <stop offset="0%" stop-color="#1e1145"/>
      <stop offset="50%" stop-color="#0e0722"/>
      <stop offset="100%" stop-color="#05020c"/>
    </linearGradient>
    <linearGradient id="goldGrad512" x1="0%" y1="0%" x2="100%" y2="100%">
      <stop offset="0%" stop-color="#FDE047"/>
      <stop offset="50%" stop-color="#F59E0B"/>
      <stop offset="100%" stop-color="#D97706"/>
    </linearGradient>
    <linearGradient id="purpleGrad512" x1="0%" y1="0%" x2="100%" y2="100%">
      <stop offset="0%" stop-color="#C084FC"/>
      <stop offset="100%" stop-color="#6366F1"/>
    </linearGradient>
  </defs>
  <rect width="512" height="512" rx="112" fill="url(#bgGrad512)" stroke="rgba(192, 132, 252, 0.3)" stroke-width="8"/>
  <circle cx="256" cy="256" r="170" fill="url(#purpleGrad512)" opacity="0.18"/>
  <circle cx="256" cy="256" r="130" fill="url(#purpleGrad512)" opacity="0.25"/>
  <!-- Trophy / Sparkle Icon -->
  <path d="M160 165 H352 V235 C352 288 310 330 256 330 C202 330 160 288 160 235 Z" fill="url(#goldGrad512)"/>
  <path d="M125 186 C125 170 140 170 160 170 V220 C140 220 125 214 125 186 Z" fill="none" stroke="url(#goldGrad512)" stroke-width="14" stroke-linecap="round"/>
  <path d="M387 186 C387 170 372 170 352 170 V220 C372 220 387 214 387 186 Z" fill="none" stroke="url(#goldGrad512)" stroke-width="14" stroke-linecap="round"/>
  <path d="M256 330 V375" stroke="url(#goldGrad512)" stroke-width="18" stroke-linecap="round"/>
  <rect x="200" y="375" width="112" height="26" rx="10" fill="url(#goldGrad512)"/>
  <!-- Star Sparkle -->
  <polygon points="256,115 266,146 298,158 266,168 256,200 246,168 214,158 246,146" fill="#FFF" opacity="0.95"/>
</svg>
